<?xml version="1.0" encoding="UTF-8"?>
<svg version="1.1" xmlns="http://www.w3.org/2000/svg" width="407" height="434">
<path d="M0 0 C134.31 0 268.62 0 407 0 C407 143.22 407 286.44 407 434 C272.69 434 138.38 434 0 434 C0 290.78 0 147.56 0 0 Z " fill="#FBFBFB" transform="translate(0,0)"/>
<path d="M0 0 C4.62 0 9.24 0 14 0 C14.79017267 21.8029125 10.77976997 42.81063343 6 64 C5.79084961 64.94214355 5.58169922 65.88428711 5.36621094 66.85498047 C2.84500031 78.15702717 -0.11839658 89.0880799 -4 100 C-4.50440527 101.49852438 -5.00500832 102.99833984 -5.5 104.5 C-5.73074219 105.18578125 -5.96148437 105.8715625 -6.19921875 106.578125 C-6.84168405 108.52119079 -7.46501205 110.47057963 -8.08203125 112.421875 C-10.45139272 119.84055345 -13.16562671 126.86045725 -16.5390625 133.8984375 C-17.92351346 136.83761949 -19.16444173 139.79829116 -20.375 142.8125 C-28.97074365 163.58328748 -40.73750585 183.20702515 -53 202 C-53.48549316 202.74459473 -53.97098633 203.48918945 -54.47119141 204.25634766 C-61.83411291 215.46442779 -69.78080022 225.94551039 -78.45751953 236.16503906 C-80.5844112 238.69522548 -82.63125252 241.28728035 -84.6875 243.875 C-88.63667169 248.72137644 -92.97856038 253.07759718 -97.44140625 257.44140625 C-99.6005733 259.6005733 -101.59837148 261.79115317 -103.5625 264.125 C-106.80799886 267.91396682 -110.4007138 271.16632332 -114.14453125 274.45703125 C-116.21739525 276.30304283 -118.24896257 278.16501272 -120.26171875 280.07421875 C-140.65187502 299.40597236 -164.50780719 317.69230674 -189.4765625 330.6640625 C-192.13735603 332.0727179 -194.68034352 333.61919963 -197.25 335.1875 C-214.05335144 345.05892056 -232.41953704 352.86252657 -250.62890625 359.7265625 C-252.93573583 360.59797205 -255.23499349 361.4896209 -257.52734375 362.3984375 C-279.06834602 370.87432898 -301.30697144 375.7987661 -324 380 C-325.5317688 380.29148926 -325.5317688 380.29148926 -327.09448242 380.58886719 C-331.95903773 381.50285651 -336.74289049 382.27596874 -341.6875 382.625 C-343.20923828 382.73714844 -343.20923828 382.73714844 -344.76171875 382.8515625 C-345.50035156 382.90054687 -346.23898437 382.94953125 -347 383 C-347 382.01 -347 381.02 -347 380 C-342.40665127 377.82420323 -337.8549365 377.28407402 -332.875 376.625 C-325.80549156 375.62446881 -318.80200245 374.46122491 -311.8125 373 C-310.68400635 372.76917725 -310.68400635 372.76917725 -309.53271484 372.53369141 C-304.97496112 371.55782446 -300.62634228 370.2593277 -296.22143555 368.74072266 C-292.69030566 367.56329128 -289.09652718 366.64140022 -285.5 365.6875 C-268.36580089 361.02464489 -252.1029133 354.44631532 -236 347 C-234.78014651 346.45398319 -233.56008093 345.90844006 -232.33984375 345.36328125 C-215.48278452 337.73727276 -199.19717455 328.57076073 -183.84619141 318.24121094 C-182.49522756 317.3329459 -181.14014312 316.43080163 -179.78271484 315.53222656 C-170.3462991 309.28230784 -161.28757127 302.88384607 -152.77734375 295.4140625 C-150.38885526 293.33799233 -147.96488583 291.4011708 -145.4375 289.5 C-140.64770494 285.83721554 -136.27245864 281.74330475 -131.86328125 277.640625 C-129.49103603 275.45285178 -127.08437566 273.33788297 -124.625 271.25 C-121.55315225 268.59154791 -118.94166695 265.74029302 -116.35546875 262.61328125 C-113.85600501 259.63841518 -111.02941538 256.98633412 -108.2265625 254.30078125 C-103.5637265 249.75774143 -99.40057332 244.96719803 -95.33203125 239.88671875 C-93.81691567 238.01122392 -92.27379174 236.15789433 -90.69921875 234.33203125 C-82.72296652 225.07644561 -75.85313162 215.10155184 -69 205 C-68.50322754 204.27119629 -68.00645508 203.54239258 -67.49462891 202.79150391 C-59.49180258 190.98228663 -52.61326142 178.63165616 -46 166 C-45.51998535 165.08524902 -45.0399707 164.17049805 -44.54541016 163.22802734 C-34.75867952 144.45205281 -26.69400769 125.08202308 -20 105 C-19.65582031 103.96746094 -19.31164062 102.93492188 -18.95703125 101.87109375 C-14.15357235 86.8333265 -10.18249748 71.4519397 -7.54296875 55.88671875 C-7 53 -7 53 -6 51 C-2.624792 34.20529033 -1.48214626 17.03942619 0 0 Z " fill="#F2EEEF" transform="translate(352,7)"/>
<path d="M0 0 C4.95 0 9.9 0 15 0 C15.19440188 16.24003402 14.04600089 32.75085315 10.52441406 48.62841797 C9.8802943 51.54135062 9.26606739 54.46024398 8.6484375 57.37890625 C5.92541049 70.08755175 2.97243731 82.62285611 -1 95 C-1.2047998 95.64855957 -1.40959961 96.29711914 -1.62060547 96.96533203 C-4.32129425 105.49748464 -7.35197579 113.82442794 -11 122 C-11.27150879 122.61004883 -11.54301758 123.22009766 -11.82275391 123.84863281 C-25.10701517 153.46864771 -42.23551489 181.05010986 -63 206 C-63.77214844 206.95648438 -64.54429687 207.91296875 -65.33984375 208.8984375 C-71.96464488 216.96961054 -79.20307903 224.41723649 -86.5625 231.8125 C-87.04510284 232.30027924 -87.52770569 232.78805847 -88.02493286 233.2906189 C-94.66754177 239.9893264 -101.59282531 246.15370443 -109 252 C-110.16830159 252.94229582 -111.33632521 253.88493651 -112.50390625 254.828125 C-115.98082907 257.58124397 -119.48236486 260.29921407 -123 263 C-123.63164062 263.48952148 -124.26328125 263.97904297 -124.9140625 264.48339844 C-159.41368246 291.02817575 -198.88101408 308.22397363 -240.390625 320.42578125 C-241.9379834 320.88078003 -241.9379834 320.88078003 -243.51660156 321.3449707 C-246 322 -246 322 -248 322 C-247.70703125 320.09765625 -247.70703125 320.09765625 -247 318 C-242.52336115 315.8883779 -238.05623188 314.75550658 -233.25 313.625 C-227.91677996 312.34020922 -223.07060045 310.50273003 -218.05078125 308.30859375 C-214.98250063 306.99249387 -211.88462277 305.83544447 -208.75 304.6875 C-201.60671641 301.9577452 -194.8619958 298.59612349 -188.08251953 295.078125 C-186.01777749 294.00920345 -183.94503417 292.95719026 -181.87109375 291.90625 C-162.2490811 281.8572966 -143.67899156 269.73326216 -126.8828125 255.4453125 C-124.02157438 253.01830022 -121.11170928 250.66302244 -118.1875 248.3125 C-114.45560408 245.27030977 -110.9986078 242.12488493 -107.66015625 238.66015625 C-105.93321125 236.93321125 -104.12117609 235.38126379 -102.25 233.8125 C-97.18072656 229.43939371 -92.7839521 224.4567307 -88.32861328 219.47705078 C-87.12537637 218.13938388 -85.90541146 216.81681071 -84.68359375 215.49609375 C-75.6286381 205.6636106 -67.4751668 195.07492174 -60 184 C-59.22280901 182.87098858 -58.44545361 181.74209032 -57.66796875 180.61328125 C-51.56743786 171.68662961 -46.14868176 162.50247932 -41 153 C-40.62488281 152.31679687 -40.24976563 151.63359375 -39.86328125 150.9296875 C-31.54920279 135.77706669 -24.47013426 120.18063558 -18.67480469 103.89404297 C-18.02585947 102.0725824 -17.36090825 100.25684856 -16.6953125 98.44140625 C-13.1501705 88.3894974 -10.87092058 78.15615778 -8.62744141 67.75073242 C-7.97939136 64.90965077 -7.23479757 62.10468391 -6.484375 59.2890625 C-4.67758069 52.12694829 -3.75238857 44.88671135 -2.875 37.5625 C-2.78939819 36.86866211 -2.70379639 36.17482422 -2.61560059 35.45996094 C-1.16479205 23.65815235 -0.26779136 11.88993651 0 0 Z " fill="#F2EEEF" transform="translate(253,7)"/>
<path d="M0 0 C2.47923801 -0.02685095 4.9581884 -0.04676547 7.4375 -0.0625 C8.14455078 -0.07087891 8.85160156 -0.07925781 9.58007812 -0.08789062 C11.38693559 -0.09653588 13.19387603 -0.05220011 15 0 C17.44435284 2.44435284 16.24180387 8.7973064 16.25 12.0625 C16.22373364 38.30071546 12.40339866 67.13445939 1.8125 91.375 C0.23396964 95.03644321 -1.27990519 98.70474717 -2.6796875 102.4375 C-9.17309434 119.58334248 -17.68090108 135.82872904 -28 151 C-28.40573242 151.60505371 -28.81146484 152.21010742 -29.22949219 152.83349609 C-34.82364633 161.17237021 -40.53208763 169.30746452 -47 177 C-47.85417879 178.04035463 -48.7083446 179.08071991 -49.5625 180.12109375 C-55.31253151 187.04570178 -61.38892421 193.56947298 -67.75 199.9375 C-68.44665771 200.63496338 -69.14331543 201.33242676 -69.86108398 202.05102539 C-82.68744801 214.7406316 -96.77267712 226.3233416 -112 236 C-113.4373785 236.9396027 -114.87348761 237.881149 -116.30859375 238.82421875 C-117.83051514 239.82063948 -119.35264979 240.81673456 -120.875 241.8125 C-121.58906006 242.28123535 -122.30312012 242.7499707 -123.03881836 243.23291016 C-126.92759286 245.75721039 -130.80544812 248.0047537 -135 250 C-136.05960938 250.52980469 -137.11921875 251.05960938 -138.2109375 251.60546875 C-141.140625 253.0703125 -144.0703125 254.53515625 -147 256 C-147.33 254.68 -147.66 253.36 -148 252 C-146.87078125 251.32517578 -146.87078125 251.32517578 -145.71875 250.63671875 C-119.86860693 234.98232385 -93.10246795 216.32824314 -73.61328125 192.921875 C-71.77293892 190.72950592 -69.82565381 188.65725617 -67.875 186.5625 C-49.2192993 165.86931663 -33.04346866 141.578831 -22 116 C-21.20142578 114.21142578 -21.20142578 114.21142578 -20.38671875 112.38671875 C-17.15057144 105.03913862 -14.40059412 97.65759136 -12 90 C-11.52626953 88.60007813 -11.52626953 88.60007813 -11.04296875 87.171875 C-8.71986222 80.10074596 -6.98808689 72.94966357 -5.375 65.6875 C-5.06574585 64.31984497 -5.06574585 64.31984497 -4.75024414 62.92456055 C-1.52401686 47.97920991 -0.65414519 33.23085961 -0.375 18 C-0.33668751 16.24217099 -0.29762889 14.48435809 -0.2578125 12.7265625 C-0.16330983 8.48451052 -0.07877593 4.24237196 0 0 Z " fill="#F2EEEF" transform="translate(153,7)"/>
<path d="M0 0 C2.47923801 -0.02685095 4.9581884 -0.04676547 7.4375 -0.0625 C8.14455078 -0.07087891 8.85160156 -0.07925781 9.58007812 -0.08789062 C11.38693559 -0.09653588 13.19387603 -0.05220011 15 0 C17.10150554 2.10150554 16.17089996 6.51376626 16.18994141 9.31835938 C16.18913574 10.47142578 16.18833008 11.62449219 16.1875 12.8125 C16.18669434 13.98490234 16.18588867 15.15730469 16.18505859 16.36523438 C16.05499075 35.12560739 13.2731071 52.50266439 8.5625 70.625 C8.26279297 71.800625 7.96308594 72.97625 7.65429688 74.1875 C6.07400352 80.28928346 4.34721253 86.15100014 2 92 C1.56300781 93.155 1.12601562 94.31 0.67578125 95.5 C-2.7574887 104.31435493 -6.67624559 112.75739298 -11.04150391 121.14794922 C-11.9018898 122.81042691 -12.73955558 124.48461653 -13.57421875 126.16015625 C-23.91982078 146.35623074 -37.81649375 164.69947334 -53.34765625 181.16015625 C-55.39523301 183.3524807 -57.34717404 185.55963724 -59.25 187.875 C-61.82789582 190.93111418 -64.70915223 193.48210653 -67.75390625 196.06640625 C-70.27103555 198.23332626 -72.69231147 200.4887785 -75.125 202.75 C-107.2199848 232 -107.2199848 232 -115 232 C-115.3671875 229.30078125 -115.3671875 229.30078125 -115 226 C-113.04194002 224.06956156 -111.36850268 222.69986535 -109.125 221.1875 C-107.9232765 220.32378685 -106.72408323 219.45654325 -105.52734375 218.5859375 C-104.92905762 218.15506836 -104.33077148 217.72419922 -103.71435547 217.28027344 C-100.36807416 214.78128466 -97.35045057 211.92271587 -94.28125 209.09765625 C-92.11623868 207.10688385 -89.91311357 205.17249829 -87.6875 203.25 C-85.39887527 201.26652523 -83.22297349 199.24610506 -81.125 197.0625 C-79 195 -79 195 -77 195 C-76.77183594 194.44054687 -76.54367188 193.88109375 -76.30859375 193.3046875 C-74.63700234 190.36069069 -72.5245329 188.44927209 -70.0625 186.125 C-64.18832434 180.42714702 -59.20497335 174.21232958 -54.28027344 167.69042969 C-53.09841479 166.12994355 -51.89768129 164.58380071 -50.6953125 163.0390625 C-35.0984807 142.77983258 -22.19395612 120.25842271 -14 96 C-13.5875 94.94296875 -13.175 93.8859375 -12.75 92.796875 C-3.15620078 67.97291952 0.21994368 41.68865581 0.0625 15.25 C0.05746985 13.76302236 0.05290965 12.27604305 0.04882812 10.7890625 C0.03795432 7.19267294 0.0207752 3.59634763 0 0 Z " fill="#F2EEEF" transform="translate(120,7)"/>
<path d="M0 0 C5.28 0 10.56 0 16 0 C20.26050027 29.8235019 16.46738989 60.87475997 6 89 C5.66387695 89.90459961 5.32775391 90.80919922 4.98144531 91.74121094 C1.54417154 100.86731858 -2.08891801 109.56070858 -7 118 C-7.36174316 118.62817627 -7.72348633 119.25635254 -8.09619141 119.90356445 C-17.55543631 136.2018567 -28.57977901 151.24237407 -40.5 165.8125 C-41.3146875 166.80894531 -42.129375 167.80539063 -42.96875 168.83203125 C-43.6390625 169.54746094 -44.309375 170.26289063 -45 171 C-45.66 171 -46.32 171 -47 171 C-47.68697023 164.70277293 -46.65338749 161.78247037 -42.96484375 156.72265625 C-31.87881083 141.36089692 -22.55472262 124.35095634 -15 107 C-14.48695312 105.82179688 -13.97390625 104.64359375 -13.4453125 103.4296875 C0.5836799 69.77464357 3.19607298 36.01428573 0 0 Z " fill="#F2EEEF" transform="translate(52,7)"/>
</svg>
